<svg viewBox="0 0 84 45" xmlns="http://www.w3.org/2000/svg" xmlns:xlink="http://www.w3.org/1999/xlink" width="84.000000" height="45.000000" fill="none" customFrame="#000000">
	<defs>
		<linearGradient id="paint_linear_0" x1="0" x2="15.1351366" y1="23.8378372" y2="23.8378315" gradientUnits="userSpaceOnUse">
			<stop stop-color="rgb(73,169,255)" offset="0" stop-opacity="1" />
			<stop stop-color="rgb(252,124,217)" offset="1" stop-opacity="1" />
		</linearGradient>
	</defs>
	<rect id="logo" width="84.000000" height="45.000000" x="0.000000" y="0.000000" />
	<path id="Fit" d="M1.8629 21L1.8629 5.97505L10.9234 5.97505L10.9234 7.77445L3.96925 7.77445L3.96925 12.31L10.1454 12.31L10.1454 14.0829L3.96925 14.0829L3.96925 21L1.8629 21ZM13.5037 5.97505L15.61 5.97505L15.61 21L13.5037 21L13.5037 5.97505ZM29.3745 5.97505L29.3745 7.80091L24.6484 7.80091L24.6484 21L22.5421 21L22.5421 7.80091L17.8213 7.80091L17.8213 5.97505L29.3745 5.97505Z" fill="rgb(43.9887,50.5617,47.2752)" fill-rule="nonzero" />
	<path id="studio" d="M6.80142 39.7994C9.03317 39.7994 10.149 39.0351 10.149 37.5066C10.149 37.0366 10.0504 36.6365 9.85304 36.3064C9.6557 35.9763 9.38659 35.6911 9.04573 35.4507C8.70846 35.2067 8.32274 34.9968 7.88859 34.821C7.45803 34.6452 6.99876 34.4676 6.51079 34.2882C5.95465 34.098 5.42541 33.8827 4.92309 33.6423C4.42435 33.3984 3.9902 33.1113 3.62064 32.7812C3.25466 32.4511 2.96582 32.0582 2.75413 31.6025C2.54243 31.1469 2.43659 30.5943 2.43659 29.9449C2.43659 28.6101 2.89227 27.5678 3.80363 26.8179C4.71498 26.068 5.97079 25.6931 7.57105 25.6931C8.49676 25.6931 9.33816 25.7935 10.0952 25.9945C10.8523 26.1918 11.4067 26.4071 11.7583 26.6403L11.0748 28.3841C10.7662 28.1903 10.3069 28.002 9.69696 27.819C9.08699 27.636 8.37836 27.5445 7.57105 27.5445C7.15843 27.5445 6.77631 27.5893 6.42468 27.679C6.07305 27.7652 5.76448 27.8961 5.49897 28.0719C5.23345 28.2477 5.02355 28.472 4.86927 28.7447C4.71498 29.0174 4.63784 29.3367 4.63784 29.7027C4.63784 30.1153 4.71857 30.4616 4.88003 30.7414C5.04149 31.0213 5.26933 31.2689 5.56355 31.4841C5.85777 31.6958 6.19863 31.8896 6.58614 32.0654C6.97723 32.2412 7.4078 32.417 7.87783 32.5928C8.54161 32.8584 9.14799 33.1239 9.69696 33.3894C10.2495 33.6513 10.7267 33.9671 11.1286 34.3366C11.534 34.7026 11.8462 35.1403 12.0651 35.6498C12.2875 36.1558 12.3987 36.7675 12.3987 37.4851C12.3987 38.8234 11.909 39.8532 10.9294 40.5744C9.9535 41.292 8.57749 41.6508 6.80142 41.6508C6.19863 41.6508 5.64249 41.6096 5.13299 41.527C4.62708 41.4481 4.17499 41.3548 3.77672 41.2472C3.38203 41.1359 3.04117 41.0175 2.75413 40.8919C2.46709 40.7664 2.24283 40.6605 2.08137 40.5744L2.72184 38.8091C3.05911 38.9993 3.5722 39.2127 4.2611 39.4496C4.95359 39.6828 5.80036 39.7994 6.80142 39.7994ZM25.1869 26.0429L25.1869 27.8997L20.3807 27.8997L20.3807 41.3225L18.2386 41.3225L18.2386 27.8997L13.4379 27.8997L13.4379 26.0429L25.1869 26.0429ZM33.1213 41.6508C32.1202 41.6508 31.2519 41.4965 30.5164 41.188C29.7844 40.8794 29.1834 40.4578 28.7134 39.9232C28.2434 39.385 27.8935 38.7499 27.6639 38.0179C27.4378 37.2824 27.3248 36.4876 27.3248 35.6337L27.3248 26.0429L29.4615 26.0429L29.4615 35.3915C29.4615 36.92 29.7988 38.0305 30.4733 38.723C31.1514 39.4119 32.0341 39.7563 33.1213 39.7563C33.6667 39.7563 34.1618 39.672 34.6067 39.5034C35.0552 39.3347 35.4409 39.0746 35.7639 38.723C36.0904 38.3678 36.3415 37.9157 36.5173 37.3667C36.6932 36.8142 36.7811 36.1558 36.7811 35.3915L36.7811 26.0429L38.9177 26.0429L38.9177 35.6337C38.9177 36.4876 38.8029 37.2824 38.5733 38.0179C38.3472 38.7499 37.9956 39.385 37.5184 39.9232C37.0412 40.4578 36.4384 40.8794 35.71 41.188C34.9853 41.4965 34.1223 41.6508 33.1213 41.6508ZM55.1448 33.6746C55.1448 34.995 54.9385 36.145 54.5259 37.1245C54.1133 38.1005 53.532 38.9078 52.7821 39.5464C52.0358 40.1851 51.1406 40.6641 50.0965 40.9834C49.0524 41.2992 47.906 41.4571 46.6574 41.4571C46.0402 41.4571 45.3603 41.4302 44.6176 41.3763C43.8748 41.3261 43.2021 41.2274 42.5993 41.0803L42.5993 26.2636C43.2021 26.1165 43.8748 26.0178 44.6176 25.9676C45.3603 25.9173 46.0402 25.8922 46.6574 25.8922C47.906 25.8922 49.0524 26.0501 50.0965 26.3658C51.1406 26.6816 52.0358 27.1588 52.7821 27.7974C53.532 28.4361 54.1133 29.2452 54.5259 30.2247C54.9385 31.2007 55.1448 32.3507 55.1448 33.6746ZM46.835 39.5787C48.8622 39.5787 50.3746 39.0621 51.372 38.0287C52.3731 36.9918 52.8736 35.5404 52.8736 33.6746C52.8736 31.8053 52.3731 30.3539 51.372 29.3206C50.3746 28.2836 48.8622 27.7652 46.835 27.7652C46.2322 27.7652 45.7639 27.7723 45.4303 27.7867C45.1002 27.801 44.8705 27.8154 44.7414 27.8297L44.7414 39.5141C44.8705 39.5285 45.1002 39.5428 45.4303 39.5572C45.7639 39.5716 46.2322 39.5787 46.835 39.5787ZM58.3173 26.0429L60.4593 26.0429L60.4593 41.3225L58.3173 41.3225L58.3173 26.0429ZM63.6338 33.6746C63.6338 32.365 63.8275 31.2115 64.215 30.214C64.6061 29.2129 65.1354 28.3787 65.8027 27.7113C66.4701 27.0404 67.2487 26.5363 68.1385 26.199C69.0284 25.8617 69.9738 25.6931 70.9749 25.6931C71.958 25.6931 72.8855 25.8617 73.7574 26.199C74.6329 26.5363 75.4007 27.0404 76.0609 27.7113C76.7247 28.3787 77.2503 29.2129 77.6378 30.214C78.0289 31.2115 78.2245 32.365 78.2245 33.6746C78.2245 34.9807 78.0289 36.1342 77.6378 37.1353C77.2503 38.1328 76.7247 38.967 76.0609 39.6379C75.4007 40.3053 74.6329 40.8076 73.7574 41.1449C72.8855 41.4822 71.958 41.6508 70.9749 41.6508C69.9738 41.6508 69.0284 41.4822 68.1385 41.1449C67.2487 40.8076 66.4701 40.3053 65.8027 39.6379C65.1354 38.967 64.6061 38.1328 64.215 37.1353C63.8275 36.1342 63.6338 34.9807 63.6338 33.6746ZM65.8781 33.6746C65.8781 34.6003 65.9947 35.4417 66.2279 36.1988C66.4647 36.9559 66.8002 37.5999 67.2344 38.131C67.6685 38.6584 68.1977 39.0656 68.8221 39.3527C69.4464 39.6361 70.1478 39.7779 70.9264 39.7779C71.705 39.7779 72.4029 39.6361 73.0201 39.3527C73.6372 39.0656 74.1628 38.6584 74.597 38.131C75.0311 37.5999 75.3648 36.9559 75.5981 36.1988C75.8349 35.4417 75.9533 34.6003 75.9533 33.6746C75.9533 32.7489 75.8349 31.9075 75.5981 31.1505C75.3648 30.3934 75.0311 29.7511 74.597 29.2237C74.1628 28.6927 73.6372 28.2836 73.0201 27.9966C72.4029 27.7095 71.705 27.566 70.9264 27.566C70.1478 27.566 69.4464 27.7095 68.8221 27.9966C68.1977 28.2836 67.6685 28.6927 67.2344 29.2237C66.8002 29.7511 66.4647 30.3934 66.2279 31.1505C65.9947 31.9075 65.8781 32.7489 65.8781 33.6746Z" fill="rgb(43.9887,50.5617,47.2752)" fill-rule="nonzero" />
	<path id="S" d="M7.58226 47.6757C5.87772 47.6757 4.35931 46.4462 3.02703 43.9873C1.67515 41.5284 0.764104 38.3864 0.293886 34.5615L2.14537 34.5615C2.59599 37.2936 3.30132 39.4565 4.26135 41.0503C5.24097 42.6895 6.34794 43.5092 7.58226 43.5092C8.34637 43.5092 9.08108 43.1677 9.78641 42.4846C10.5113 41.7561 11.1383 40.777 11.6673 39.5476C12.1963 38.3181 12.6077 36.8838 12.9016 35.2445C13.1955 33.6052 13.3424 31.8749 13.3424 30.0534C13.3424 28.3231 13.2053 26.6838 12.931 25.1356C12.6763 23.5419 12.304 22.1075 11.8142 20.8325C11.3244 19.6486 10.7562 18.6923 10.1097 17.9638C9.46313 17.2352 8.7676 16.8026 8.02309 16.666L8.02309 35.2445L7.37654 35.2445C6.37733 35.2445 5.4173 34.7891 4.49646 33.8784C3.59521 32.9222 2.81151 31.6244 2.14537 29.9851C1.45963 28.3459 0.93064 26.4561 0.558384 24.316C0.186128 22.1758 0 19.9218 0 17.5539C0 15.1861 0.186128 12.9549 0.558384 10.8602C0.950232 8.72005 1.49882 6.83033 2.20415 5.19105C2.90947 3.55177 3.71276 2.27677 4.61401 1.36606C5.53486 0.455355 6.50468 0 7.52349 0C9.24762 0 10.7856 1.20669 12.1375 3.62007C13.4698 6.07899 14.371 9.24371 14.8413 13.1142L12.9898 13.1142C12.5391 10.3821 11.8436 8.21916 10.9032 6.62542C9.88437 4.98614 8.7676 4.1665 7.55287 4.1665C6.76918 4.1665 6.02467 4.50801 5.31934 5.19105C4.63361 5.87408 4.02624 6.83032 3.49725 8.05978C2.96825 9.28924 2.54701 10.7464 2.23353 12.4312C1.93965 14.0705 1.79271 15.7781 1.79271 17.5539C1.79271 20.8325 2.22374 23.6785 3.0858 26.0918C3.96746 28.5963 5.04505 30.1445 6.31855 30.7365L6.31855 12.4312L7.87615 12.4312C8.85577 12.4312 9.78641 12.9093 10.6681 13.8656C11.5497 14.7763 12.3334 16.0513 13.0192 17.6905C13.6853 19.3298 14.2045 21.2195 14.5768 23.3597C14.949 25.4999 15.1351 27.7311 15.1351 30.0534C15.1351 32.4668 14.9392 34.7436 14.5474 36.8838C14.1751 38.9784 13.6363 40.8453 12.931 42.4846C12.2257 44.1239 11.4126 45.3989 10.4917 46.3096C9.57089 47.2203 8.60107 47.6757 7.58226 47.6757Z" fill="url(#paint_linear_0)" fill-rule="evenodd" transform="matrix(-4.37114e-08,1,-1,-4.37114e-08,79.4595,5.29736)" />
</svg>
