<svg viewBox="0 0 47.6757 15.1353" xmlns="http://www.w3.org/2000/svg" xmlns:xlink="http://www.w3.org/1999/xlink" width="47.675659" height="15.135254" fill="none" customFrame="#000000">
	<defs>
		<linearGradient id="paint_linear_0" x1="0" x2="15.1351366" y1="23.8378372" y2="23.8378315" gradientUnits="userSpaceOnUse">
			<stop stop-color="rgb(73,169,255)" offset="0" stop-opacity="1" />
			<stop stop-color="rgb(252,124,217)" offset="1" stop-opacity="1" />
		</linearGradient>
	</defs>
	<path id="S" d="M7.58226 47.6757C5.87772 47.6757 4.35931 46.4462 3.02703 43.9873C1.67515 41.5284 0.764104 38.3864 0.293886 34.5615L2.14537 34.5615C2.59599 37.2936 3.30132 39.4565 4.26135 41.0503C5.24097 42.6895 6.34794 43.5092 7.58226 43.5092C8.34637 43.5092 9.08108 43.1677 9.78641 42.4846C10.5113 41.7561 11.1383 40.777 11.6673 39.5476C12.1963 38.3181 12.6077 36.8838 12.9016 35.2445C13.1955 33.6052 13.3424 31.8749 13.3424 30.0534C13.3424 28.3231 13.2053 26.6838 12.931 25.1356C12.6763 23.5419 12.304 22.1075 11.8142 20.8325C11.3244 19.6486 10.7562 18.6923 10.1097 17.9638C9.46313 17.2352 8.7676 16.8026 8.02309 16.666L8.02309 35.2445L7.37654 35.2445C6.37733 35.2445 5.4173 34.7891 4.49646 33.8784C3.59521 32.9222 2.81151 31.6244 2.14537 29.9851C1.45963 28.3459 0.93064 26.4561 0.558384 24.316C0.186128 22.1758 0 19.9218 0 17.5539C0 15.1861 0.186128 12.9549 0.558384 10.8602C0.950232 8.72005 1.49882 6.83033 2.20415 5.19105C2.90947 3.55177 3.71276 2.27677 4.61401 1.36606C5.53486 0.455355 6.50468 0 7.52349 0C9.24762 0 10.7856 1.20669 12.1375 3.62007C13.4698 6.07899 14.371 9.24371 14.8413 13.1142L12.9898 13.1142C12.5391 10.3821 11.8436 8.21916 10.9032 6.62542C9.88437 4.98614 8.7676 4.1665 7.55287 4.1665C6.76918 4.1665 6.02467 4.50801 5.31934 5.19105C4.63361 5.87408 4.02624 6.83032 3.49725 8.05978C2.96825 9.28924 2.54701 10.7464 2.23353 12.4312C1.93965 14.0705 1.79271 15.7781 1.79271 17.5539C1.79271 20.8325 2.22374 23.6785 3.0858 26.0918C3.96746 28.5963 5.04505 30.1445 6.31855 30.7365L6.31855 12.4312L7.87615 12.4312C8.85577 12.4312 9.78641 12.9093 10.6681 13.8656C11.5497 14.7763 12.3334 16.0513 13.0192 17.6905C13.6853 19.3298 14.2045 21.2195 14.5768 23.3597C14.949 25.4999 15.1351 27.7311 15.1351 30.0534C15.1351 32.4668 14.9392 34.7436 14.5474 36.8838C14.1751 38.9784 13.6363 40.8453 12.931 42.4846C12.2257 44.1239 11.4126 45.3989 10.4917 46.3096C9.57089 47.2203 8.60107 47.6757 7.58226 47.6757Z" fill="url(#paint_linear_0)" fill-rule="evenodd" transform="matrix(-4.37114e-08,1,-1,-4.37114e-08,47.6757,0)" />
</svg>
